<svg xmlns="http://www.w3.org/2000/svg" viewBox="0 0 32 32" width="32" height="32">
  <rect x="3" y="6" width="5.5" height="14.5" transform="rotate(-90 3 6)" fill="#2B2B2B"/>
  <rect x="13.7" y="15.7" width="9" height="5.5" transform="rotate(-45 13.7 15.7)" fill="#2B2B2B"/>
  <path d="M24 6.5L20.1 10.4L18.1 8.4L22 4.5L24 6.5ZM20.4 2.7L16.5 6.6L13.7 3.8L17.7 0L20.4 2.7Z" fill="#2B2B2B"/>
  <path d="M17.7 19.5H10V17L13 14H17.7V19.5Z" fill="#2B2B2B"/>
  <path d="M5.5 31.5H0V26.7L5.5 21.2V31.5ZM5.5 17.7L0 23.2V0.5H5.5V17.7Z" fill="#2B2B2B"/>
  <path d="M24 12.5H18V8.4L20 6.5H24V12.5Z" fill="#2B2B2B"/>
</svg>
