<svg width="416" height="542" viewBox="0 0 416 542" fill="none" xmlns="http://www.w3.org/2000/svg">
<rect x="48" y="96.0781" width="96" height="256" transform="rotate(-90 48 96.0781)" fill="white"/>
<rect x="236" y="266.077" width="158.391" height="96.1675" transform="rotate(-45 236 266.077)" fill="white"/>
<path d="M416 112.078L347.942 180.04L312.267 144.313L380.276 76.3037L416 112.078ZM352.012 48L284.002 116.01L236.021 67.9619L304.078 0L352.012 48Z" fill="white"/>
<path d="M304 334.078H167V289.581L218.503 238.078H304V334.078Z" fill="white"/>
<path d="M96 541.078H0V456.581L96 360.581V541.078ZM96 304.013L0 400.013V0.078125H96V304.013Z" fill="white"/>
<path d="M416 222.078H312V144.581L344.503 112.078H416V222.078Z" fill="white"/>
</svg>
